<?xml version="1.0" encoding="utf-8"?>
<!-- Generator: Adobe Illustrator 16.0.0, SVG Export Plug-In . SVG Version: 6.00 Build 0)  -->
<!DOCTYPE svg PUBLIC "-//W3C//DTD SVG 1.1//EN" "http://www.w3.org/Graphics/SVG/1.1/DTD/svg11.dtd">
<svg version="1.1" id="Layer_1" xmlns="http://www.w3.org/2000/svg" xmlns:xlink="http://www.w3.org/1999/xlink" x="0px" y="0px"
	 width="150px" height="150px" viewBox="0 0 150 150" enable-background="new 0 0 150 150" xml:space="preserve">
<g>
	<path fill="#F5F7F0" d="M27.539,42.796c-5.149,0-9.33,4.179-9.33,9.33v37.325c0,5.147,4.181,9.331,9.33,9.331
		c5.151,0,9.332-4.184,9.332-9.331V52.126C36.871,46.971,32.69,42.796,27.539,42.796z"/>
	<path fill="#F5F7F0" d="M130.178,42.796c-5.15,0-9.335,4.179-9.335,9.33v37.325c0,5.147,4.185,9.331,9.335,9.331
		c5.146,0,9.327-4.184,9.327-9.331V52.126C139.505,46.971,135.324,42.796,130.178,42.796z"/>
	<path fill="#F5F7F0" d="M41.536,117.441h9.332v23.326c0,5.15,4.179,9.331,9.328,9.331c5.15,0,9.333-4.181,9.333-9.331v-23.326
		h18.66v23.326c0,5.15,4.183,9.331,9.329,9.331c5.147,0,9.331-4.181,9.331-9.331v-23.326h9.331V47.462H41.536V117.441z"/>
	<path fill="#F5F7F0" d="M100.891,12.712l4.792-8.297c0.646-1.122,0.266-2.544-0.855-3.193c-1.113-0.646-2.543-0.266-3.192,0.859
		l-4.668,8.089c-5.361-2.984-11.529-4.697-18.11-4.697c-6.575,0-12.739,1.712-18.109,4.701l-4.674-8.097
		c-0.649-1.117-2.069-1.498-3.19-0.855c-1.113,0.645-1.499,2.067-0.854,3.186l4.793,8.304c-9.251,6.794-15.287,17.721-15.287,30.084
		h74.644C116.18,30.433,110.145,19.506,100.891,12.712z M64.863,28.799c-2.581,0-4.667-2.083-4.667-4.665
		c0-2.581,2.086-4.666,4.667-4.666c2.582,0,4.666,2.084,4.666,4.666C69.528,26.716,67.444,28.799,64.863,28.799z M92.854,28.799
		c-2.578,0-4.666-2.083-4.666-4.665c0-2.581,2.088-4.666,4.666-4.666c2.577,0,4.663,2.084,4.663,4.666
		C97.518,26.716,95.432,28.799,92.854,28.799z"/>
</g>
</svg>
