<?xml version="1.0" encoding="utf-8"?>
<!-- Generator: Adobe Illustrator 16.0.0, SVG Export Plug-In . SVG Version: 6.00 Build 0)  -->
<!DOCTYPE svg PUBLIC "-//W3C//DTD SVG 1.1//EN" "http://www.w3.org/Graphics/SVG/1.1/DTD/svg11.dtd">
<svg version="1.1" id="Layer_1" xmlns="http://www.w3.org/2000/svg" xmlns:xlink="http://www.w3.org/1999/xlink" x="0px" y="0px"
	 width="150px" height="150px" viewBox="0 0 150 150" enable-background="new 0 0 150 150" xml:space="preserve">
<g transform="translate(416 512)">
	<path fill="#444444" d="M-290.753-511.75h-100.012c-13.806,0-24.984,11.197-24.984,25.003v99.993
		c0,13.808,11.188,25.004,24.984,25.004h50.016v-65.625h-18.75v-18.75h18.75v-14.063c0-12.945,10.483-23.438,23.438-23.438h23.438
		v18.75h-23.438c-2.591,0-4.688,2.096-4.688,4.688v14.063h25.781l-4.688,18.75h-21.094v65.625h31.255
		c13.808,0,24.995-11.196,24.995-25.004v-99.993c0-13.807-11.196-25.003-24.995-25.003H-290.753z"/>
</g>
</svg>
