<?xml version="1.0" encoding="utf-8"?>
<!-- Generator: Adobe Illustrator 16.0.0, SVG Export Plug-In . SVG Version: 6.00 Build 0)  -->
<!DOCTYPE svg PUBLIC "-//W3C//DTD SVG 1.1//EN" "http://www.w3.org/Graphics/SVG/1.1/DTD/svg11.dtd">
<svg version="1.1" id="Layer_1" xmlns="http://www.w3.org/2000/svg" xmlns:xlink="http://www.w3.org/1999/xlink" x="0px" y="0px"
	 width="150px" height="150px" viewBox="0 0 150 150" enable-background="new 0 0 150 150" xml:space="preserve">
<g transform="translate(288 512)">
	<path fill="#444444" d="M-287.873-384.012c-0.037-0.378-0.064-0.744-0.083-1.121C-287.937-384.756-287.909-384.379-287.873-384.012
		z M-253.276-428.827c13.55,0.406,22.628-13.642,20.292-31.375c-2.336-17.736-15.224-31.956-28.753-32.371
		c-13.551-0.404-22.63,13.172-20.293,30.908C-279.694-443.932-266.817-429.232-253.276-428.827z M-137.283-474.322v-12.556
		c0-13.817-11.304-25.122-25.12-25.122H-262.87c-13.586,0-24.727,10.928-25.104,24.422c8.592-7.562,20.504-13.88,32.792-13.88
		c13.146,0,52.581,0,52.581,0l-11.765,9.952h-16.669c11.057,4.241,16.944,17.091,16.944,30.273c0,11.083-6.155,20.605-14.847,27.375
		c-8.481,6.614-10.081,9.374-10.081,14.993c0,4.802,9.087,12.951,13.834,16.31c13.89,9.796,18.389,18.886,18.389,34.072
		c0,2.419-0.305,4.829-0.902,7.201h45.294c13.816,0,25.112-11.296,25.112-25.12v-78.493h-28.259v28.258h-9.419v-28.258h-28.258
		v-9.418h28.258v-28.258h9.419v28.258h28.259L-137.283-474.322z M-260.645-399.272c3.192,0,6.099-0.082,9.125-0.082
		c-4.001-3.874-7.165-8.628-7.165-14.479c0-3.478,1.113-6.816,2.667-9.786c-1.583,0.108-3.202,0.156-4.875,0.156
		c-10.947,0-20.247-3.542-27.108-9.403v9.898v29.686c7.865-3.727,17.201-5.98,27.347-5.98L-260.645-399.272z M-287.495-381.417
		c-0.157-0.801-0.294-1.619-0.378-2.457C-287.789-383.036-287.661-382.218-287.495-381.417z M-220.962-371.768
		c-2.218-8.657-10.082-12.943-21.037-20.54c-3.984-1.279-8.372-2.043-13.08-2.09c-13.191-0.146-25.481,5.144-32.416,13.008
		c2.346,11.435,12.519,20.1,24.615,20.1h42.156c0.267-1.639,0.395-3.331,0.395-5.07
		C-220.328-368.207-220.548-370.003-220.962-371.768z"/>
</g>
</svg>
