<?xml version="1.0" encoding="utf-8"?>
<!-- Generator: Adobe Illustrator 16.0.0, SVG Export Plug-In . SVG Version: 6.00 Build 0)  -->
<!DOCTYPE svg PUBLIC "-//W3C//DTD SVG 1.1//EN" "http://www.w3.org/Graphics/SVG/1.1/DTD/svg11.dtd">
<svg version="1.1" id="Layer_1" xmlns="http://www.w3.org/2000/svg" xmlns:xlink="http://www.w3.org/1999/xlink" x="0px" y="0px"
	 width="150px" height="150px" viewBox="0 0 150 150" enable-background="new 0 0 150 150" xml:space="preserve">
<g transform="translate(512 512)">
	<path fill="#444444" d="M-387.033-512.375h-100.099c-13.683,0-24.868,11.194-24.868,24.875v100.092
		c0,13.685,11.185,24.882,24.868,24.882h100.099c13.685,0,24.882-11.197,24.882-24.882V-487.5
		C-362.151-501.181-373.349-512.375-387.033-512.375z M-464.04-446.816h53.917c1.015,2.927,1.581,6.09,1.581,9.365
		c0,15.729-12.805,28.534-28.534,28.534c-15.74,0-28.546-12.805-28.546-28.534C-465.622-440.727-465.053-443.89-464.04-446.816z
		 M-380.883-446.808v56.185c0,5.149-4.216,9.365-9.365,9.365h-93.655c-5.157,0-9.366-4.216-9.366-9.365v-56.193h14.64
		c-0.684,3.019-1.038,6.156-1.038,9.365c0,23.479,19.104,42.587,42.591,42.587c23.479,0,42.587-19.107,42.587-42.587
		c0-3.209-0.37-6.347-1.047-9.365L-380.883-446.808z M-380.883-479.596c0,2.579-2.111,4.683-4.683,4.683h-9.365
		c-2.579,0-4.684-2.104-4.684-4.683v-9.367c0-2.577,2.104-4.682,4.684-4.682h9.365c2.571,0,4.683,2.105,4.683,4.682V-479.596z"/>
</g>
</svg>
