<?xml version="1.0" encoding="utf-8"?>
<!-- Generator: Adobe Illustrator 16.0.0, SVG Export Plug-In . SVG Version: 6.00 Build 0)  -->
<!DOCTYPE svg PUBLIC "-//W3C//DTD SVG 1.1//EN" "http://www.w3.org/Graphics/SVG/1.1/DTD/svg11.dtd">
<svg version="1.1" id="Layer_1" xmlns="http://www.w3.org/2000/svg" xmlns:xlink="http://www.w3.org/1999/xlink" x="0px" y="0px"
	 width="150px" height="150px" viewBox="0 0 150 150" enable-background="new 0 0 150 150" xml:space="preserve">
<g>
	<g id="Layer_1_1_">
		<g>
			<g>
				<path fill="#F8F9F4" d="M32.204,19.487h24.875v70.05c0,31.45-15.153,42.6-39.17,42.6c-6.004,0-13.438-0.855-18.298-2.573
					l2.859-20.3c3.431,1.146,8.006,2.001,12.866,2.001c10.579,0,17.154-4.86,17.154-21.728L32.204,19.487L32.204,19.487z"/>
				<path fill="#F8F9F4" d="M79.094,104.691c6.576,3.43,17.154,6.86,27.731,6.86c11.438,0,17.442-4.861,17.442-12.295
					c0-6.861-5.146-10.865-18.584-15.439c-18.299-6.576-30.593-16.869-30.593-33.166c0-18.584,16.01-32.879,42.029-32.879
					c12.58,0,21.73,2.573,28.305,5.718l-5.718,20.014c-4.289-2.001-12.294-5.146-22.873-5.146c-10.865,0-16.011,5.146-16.011,10.579
					c0,7.149,6.002,10.292,20.586,15.726C140.85,71.81,150,82.103,150,97.828c0,18.584-14.009,34.309-44.603,34.309
					c-12.58,0-25.161-3.43-31.451-6.862L79.094,104.691z"/>
			</g>
		</g>
	</g>
</g>
</svg>
