<?xml version="1.0" encoding="utf-8"?>
<!-- Generator: Adobe Illustrator 16.0.0, SVG Export Plug-In . SVG Version: 6.00 Build 0)  -->
<!DOCTYPE svg PUBLIC "-//W3C//DTD SVG 1.1//EN" "http://www.w3.org/Graphics/SVG/1.1/DTD/svg11.dtd">
<svg version="1.1" id="Layer_1" xmlns="http://www.w3.org/2000/svg" xmlns:xlink="http://www.w3.org/1999/xlink" x="0px" y="0px"
	 width="150px" height="150px" viewBox="0 0 150 150" enable-background="new 0 0 150 150" xml:space="preserve">
<g transform="translate(32 608)">
	<path fill="#444444" d="M92.831-608H-6.8c-13.854,0-25.2,11.337-25.2,25.209v99.63c0,13.855,11.337,25.201,25.2,25.201h99.631
		c13.863,0,25.209-11.337,25.209-25.201v-99.63C118.04-596.654,106.703-608,92.831-608z M24.262-486.1H5.508v-65.638h18.754V-486.1z
		 M14.886-561.114c-5.175,0-9.378-4.205-9.378-9.378c0-5.174,4.203-9.376,9.378-9.376c5.172,0,9.376,4.202,9.376,9.376
		C24.262-565.319,20.058-561.114,14.886-561.114z M89.9-486.1H71.146v-37.508c0-5.174-4.202-9.378-9.377-9.378
		c-5.185,0-9.376,4.205-9.376,9.378v37.508H33.637v-65.638h18.755v11.648c3.864-5.322,9.779-11.648,16.41-11.648
		c11.656,0,21.098,10.492,21.098,23.441V-486.1z"/>
</g>
</svg>
