<?xml version="1.0" encoding="utf-8"?>
<!-- Generator: Adobe Illustrator 16.0.0, SVG Export Plug-In . SVG Version: 6.00 Build 0)  -->
<!DOCTYPE svg PUBLIC "-//W3C//DTD SVG 1.1//EN" "http://www.w3.org/Graphics/SVG/1.1/DTD/svg11.dtd">
<svg version="1.1" id="Layer_1" xmlns="http://www.w3.org/2000/svg" xmlns:xlink="http://www.w3.org/1999/xlink" x="0px" y="0px"
	 width="150px" height="150px" viewBox="0 0 150 150" enable-background="new 0 0 150 150" xml:space="preserve">
<path fill="#F2F2F7" stroke="#F2F2F7" stroke-miterlimit="10" d="M0.982,103.532h4.906V84.11l7.709,16.92
	c0.852,2.051,2.103,2.803,4.556,2.803s3.555-0.752,4.506-2.803l7.608-16.92v19.422h4.906V84.11c0-1.854-0.75-2.805-2.353-3.305
	c-3.704-1.102-6.257-0.149-7.359,2.352l-7.509,16.722l-7.259-16.722c-1.102-2.553-3.655-3.453-7.359-2.352
	c-1.501,0.5-2.303,1.451-2.303,3.305L0.982,103.532L0.982,103.532z"/>
<path fill="#F2F2F7" stroke="#F2F2F7" stroke-miterlimit="10" d="M39.179,87.713h4.906v10.664c0,0.601,0.15,1.952,2.854,2.053
	c1.452,0,10.663,0,10.714,0V87.664h4.905c0,0,0,17.42,0,17.521c0,4.306-5.307,5.257-7.76,5.257H39.229v-3.354h15.569
	c3.104-0.351,2.804-1.952,2.804-2.453v-1.251H47.139c-4.906,0-8.01-2.202-8.01-4.657C39.179,98.526,39.279,87.814,39.179,87.713
	L39.179,87.713z"/>
<path fill="#F2F2F7" stroke="#F2F2F7" stroke-miterlimit="10" d="M145.211,75.399c-3.056-0.1-5.308,0.25-7.359,1
	c-0.601,0.251-1.452,0.251-1.501,0.952c0.348,0.349,0.348,0.75,0.6,1.201c0.4,0.751,1.251,1.753,1.954,2.301
	c0.749,0.602,1.6,1.203,2.451,1.755c1.452,0.95,3.104,1.451,4.555,2.352c0.852,0.5,1.702,1.2,2.455,1.751
	c0.4,0.352,0.699,0.753,1.2,1.002v-0.1c-0.252-0.35-0.351-0.851-0.6-1.201c-0.352-0.352-0.753-0.7-1.103-1.102
	c-1.102-1.452-2.451-2.804-3.904-3.805c-1.203-0.85-3.907-1.953-4.306-3.404c0,0,0,0-0.1-0.101c0.85-0.1,1.751-0.351,2.602-0.599
	c1.253-0.353,2.454-0.251,3.806-0.603c0.6-0.149,1.201-0.35,1.753-0.5c0-0.101,0-0.251,0-0.351c-0.702-0.7-1.202-1.601-1.854-2.202
	c-1.952-1.702-4.054-3.305-6.257-4.656c-1.201-0.751-2.704-1.251-3.905-1.852c-0.399-0.25-1.2-0.35-1.451-0.701
	c-0.703-0.851-1.001-1.952-1.503-2.853c-1.103-2.103-2.103-4.406-3.103-6.609c-0.702-1.452-1.101-2.953-1.953-4.306
	c-3.904-6.408-8.109-10.312-14.618-14.118c-1.451-0.75-3.053-1.1-4.807-1.501c-0.95,0-1.853-0.101-2.803-0.15
	c-0.6-0.251-1.201-1.001-1.752-1.352c-2.104-1.352-7.709-4.306-9.312-0.4c-1.002,2.453,1.502,4.906,2.352,6.107
	c0.703,0.851,1.452,1.852,1.953,2.803c0.252,0.702,0.35,1.352,0.602,2.053c0.6,1.703,1.2,3.455,1.953,5.056
	c0.401,0.751,0.851,1.602,1.451,2.353c0.349,0.401,0.852,0.602,0.95,1.252c-0.499,0.75-0.602,1.852-0.851,2.804
	c-1.351,4.204-0.852,9.562,1.103,12.665c0.598,0.952,2.051,3.055,3.954,2.203c1.702-0.701,1.352-2.804,1.752-4.756
	c0.101-0.399,0-0.751,0.252-1v0.1c0.498,1.001,1,2.102,1.501,3.103c1.2,1.853,3.203,3.804,4.905,5.057
	c0.952,0.699,1.603,1.852,2.803,2.303v-0.101c0,0,0,0-0.1,0c-0.25-0.351-0.602-0.501-0.851-0.752c-0.7-0.7-1.452-1.501-1.952-2.302
	c-1.603-2.103-2.952-4.505-4.206-6.859c-0.6-1.201-1.101-2.453-1.603-3.653c-0.249-0.401-0.249-1.102-0.601-1.353
	c-0.601,0.851-1.453,1.502-1.751,2.553c-0.701,1.602-0.753,3.655-1.002,5.656c-0.149,0-0.1,0-0.149,0.101
	c-1.201-0.352-1.603-1.502-2.103-2.604c-1.103-2.703-1.353-7.008-0.35-10.063c0.25-0.75,1.451-3.304,0.949-4.055
	c-0.25-0.7-1.001-1.102-1.452-1.702c-0.5-0.702-1-1.603-1.351-2.454c-0.952-2.103-1.352-4.506-2.353-6.608
	c-0.4-1.001-1.251-2.053-1.854-2.854c-0.7-1.001-1.5-1.751-2.102-2.953c-0.15-0.401-0.4-1.102-0.15-1.502
	c0.102-0.351,0.251-0.399,0.5-0.5c0.501-0.4,1.854,0.101,2.354,0.35c1.451,0.602,2.552,1.102,3.704,1.854
	c0.501,0.35,1.102,1.1,1.753,1.251c0.25,0,0.498,0,0.749,0c1.202,0.25,2.554,0.1,3.706,0.4c2.052,0.702,3.804,1.602,5.407,2.604
	c4.904,3.104,9.061,7.609,11.763,12.916c0.401,0.851,0.701,1.702,1.001,2.553c0.752,1.853,1.753,3.705,2.554,5.557
	c0.751,1.752,1.502,3.555,2.702,5.057c0.602,0.75,2.807,1.201,3.906,1.601c0.751,0.352,1.952,0.701,2.602,1.002
	c1.251,0.75,2.555,1.703,3.806,2.553C143.157,73.696,145.061,74.647,145.211,75.399L145.211,75.399z"/>
<path fill="#F2F2F7" stroke="#F2F2F7" stroke-miterlimit="10" d="M106.714,42.559c-0.702,0-1.103,0.1-1.503,0.149c0,0,0,0,0,0.101
	c0,0,0,0,0.1,0c0.352,0.601,0.852,1.001,1.202,1.501c0.351,0.602,0.6,1.202,0.852,1.752l0.099-0.099
	c0.503-0.351,0.751-1.002,0.751-1.853c-0.248-0.25-0.248-0.501-0.399-0.751C107.514,43.108,107.013,42.908,106.714,42.559
	L106.714,42.559z"/>
<path fill="#F2F2F7" stroke="#F2F2F7" stroke-miterlimit="10" d="M66.413,103.532h14.219c1.701,0,3.203-0.35,4.554-0.949
	c2.103-1.002,3.104-2.303,3.104-4.057v-3.655c0-1.451-1.201-2.703-3.452-3.653c-1.204-0.399-2.705-0.702-4.206-0.702h-5.909
	c-2.052,0-2.953-0.6-3.203-1.951c0-0.151,0-0.352,0-0.401v-2.103c0-0.101,0-0.249,0-0.401c0.25-0.999,0.751-1.251,2.553-1.451
	c0.151,0,0.351,0,0.401,0h14.015v-3.303H74.723c-2.052,0-3.054,0.1-3.955,0.4c-2.853,0.951-4.204,2.354-4.204,4.907v2.853
	c0,2.202,2.453,4.154,6.657,4.555c0.4,0,0.952,0,1.451,0h5.057c0.149,0,0.351,0,0.501,0c1.502,0.152,2.202,0.401,2.702,1.002
	c0.351,0.351,0.351,0.602,0.351,0.951v2.854c0,0.351-0.251,0.751-0.7,1.2c-0.4,0.401-1.203,0.702-2.103,0.702
	c-0.151,0-0.352,0-0.501,0H66.362v3.203H66.413z"/>
<path fill="#F2F2F7" stroke="#F2F2F7" stroke-miterlimit="10" d="M118.978,97.875c0,3.404,2.554,5.256,7.609,5.559
	c0.5,0,0.952,0.099,1.452,0.099h12.865v-3.304H127.99c-2.856,0-3.957-0.701-3.957-2.451V80.806h-5.006v17.069H118.978z"/>
<path fill="#F2F2F7" stroke="#F2F2F7" stroke-miterlimit="10" d="M91.443,98.025V86.361c0-2.953,2.103-4.805,6.259-5.308
	c0.401,0,0.951-0.098,1.35-0.098h9.364c0.498,0,0.949,0,1.452,0.098c4.153,0.602,6.156,2.354,6.156,5.308v11.664
	c0,2.455-0.852,3.705-2.854,4.558l4.805,4.404h-5.655l-3.904-3.554l-3.956,0.25h-5.256c-0.853,0-1.854-0.101-2.854-0.352
	C92.944,102.332,91.443,100.729,91.443,98.025L91.443,98.025z M96.749,97.727c0,0.148,0.103,0.349,0.103,0.5
	c0.249,1.352,1.5,2.103,3.453,2.103h4.507l-4.056-3.706h5.655l3.554,3.204c0.703-0.349,1.104-0.949,1.254-1.601
	c0-0.151,0-0.352,0-0.5V86.462c0-0.151,0-0.352,0-0.401c-0.251-1.251-1.502-2.054-3.453-2.054h-7.36
	c-2.204,0-3.656,0.953-3.656,2.455V97.727L96.749,97.727z"/>
</svg>
