<?xml version="1.0" encoding="utf-8"?>
<!-- Generator: Adobe Illustrator 16.0.0, SVG Export Plug-In . SVG Version: 6.00 Build 0)  -->
<!DOCTYPE svg PUBLIC "-//W3C//DTD SVG 1.1//EN" "http://www.w3.org/Graphics/SVG/1.1/DTD/svg11.dtd">
<svg version="1.1" id="Layer_1" xmlns="http://www.w3.org/2000/svg" xmlns:xlink="http://www.w3.org/1999/xlink" x="0px" y="0px"
	 width="150px" height="150px" viewBox="0 0 150 150" enable-background="new 0 0 150 150" xml:space="preserve">
<g id="Layer_2">
	<g>
		<path fill="#F4F4F9" d="M29.951,57.002c4.67,0,7.783,0.862,9.339,2.586c1.555,1.725,1.925,4.684,1.112,8.877
			c-0.85,4.368-2.487,7.485-4.913,9.352c-2.426,1.869-6.118,2.802-11.073,2.802h-7.478l4.59-23.617H29.951z M0,104.526h12.293
			l2.916-15.002h10.529c4.646,0,8.468-0.487,11.469-1.465c3-0.976,5.727-2.611,8.182-4.909c2.06-1.894,3.727-3.981,5.003-6.266
			c1.274-2.282,2.181-4.802,2.716-7.557c1.301-6.689,0.319-11.899-2.941-15.632c-3.261-3.733-8.448-5.599-15.56-5.599H10.968
			L0,104.526z"/>
		<path fill="#F4F4F9" d="M62.135,33.094h12.195l-2.916,15.003h10.864c6.836,0,11.552,1.193,14.147,3.576
			c2.595,2.385,3.372,6.25,2.335,11.591l-5.104,26.26H81.27l4.852-24.968c0.553-2.84,0.35-4.778-0.609-5.811
			c-0.959-1.033-2.999-1.55-6.118-1.55h-9.748l-6.283,32.329H51.167L62.135,33.094z"/>
		<path fill="#F4F4F9" d="M125.896,57.002c4.67,0,7.783,0.862,9.34,2.586c1.555,1.725,1.925,4.684,1.111,8.877
			c-0.851,4.368-2.486,7.485-4.913,9.352c-2.426,1.869-6.117,2.802-11.073,2.802h-7.477l4.589-23.617H125.896z M95.946,104.526
			h12.293l2.915-15.002h10.529c4.646,0,8.468-0.487,11.469-1.465c3-0.976,5.727-2.611,8.181-4.909
			c2.062-1.894,3.728-3.981,5.004-6.266c1.273-2.282,2.181-4.802,2.716-7.557c1.301-6.689,0.32-11.899-2.941-15.632
			c-3.262-3.733-8.448-5.599-15.56-5.599h-23.638L95.946,104.526z"/>
	</g>
</g>
</svg>
